<svg xmlns="http://www.w3.org/2000/svg" xmlns:xlink="http://www.w3.org/1999/xlink" version="1.0" x="0px" y="0px" viewBox="0 0 141.73 177.1625" enable-background="new 0 0 141.73 141.73" xml:space="preserve"><g><path d="M93.989,59.592H68.865v23.144h25.124c6.109,0,11.071-4.961,11.071-11.07v-1.003   C105.061,64.559,100.099,59.592,93.989,59.592z"/><path d="M96.089,45.745V4.498H45.248v41.247H4.002v50.84h41.246v41.246h50.841V96.585h41.245v-50.84H96.089z M108.609,71.705   c0,7.851-6.355,14.206-14.206,14.206H69.103v0.003H43.798c-7.846,0-14.206-6.359-14.206-14.206v-1.083   c0-7.846,6.36-14.206,14.206-14.206h25.304v-0.003h25.301c7.851,0,14.206,6.362,14.206,14.206V71.705z"/></g></svg>