<svg xmlns="http://www.w3.org/2000/svg" xmlns:xlink="http://www.w3.org/1999/xlink" version="1.1" x="0px" y="0px" viewBox="0 0 100 99.999" enable-background="new 0 0 100 99.999" xml:space="preserve"><path d="M49.997,0c-3.83,0-6.941,3.107-6.941,6.946c0,2.279,1.116,4.286,2.815,5.553c1.156,0.861,2.575,1.39,4.126,1.39  c1.552,0,2.971-0.528,4.128-1.39c1.7-1.267,2.819-3.274,2.819-5.553C56.944,3.107,53.827,0,49.997,0z"></path><path d="M67.104,77.843c0.157-0.458,0.347-0.903,0.58-1.322C67.45,76.939,67.26,77.385,67.104,77.843z"></path><path d="M66.749,79.348c0.064-0.463,0.157-0.917,0.298-1.353C66.906,78.431,66.813,78.885,66.749,79.348z"></path><path d="M85.893,54.52c-1.179-11.159-7.447-20.816-16.448-26.592v6.852c5.888,4.871,9.923,11.902,10.885,19.866  c0.946-0.31,1.954-0.48,3.002-0.48C84.219,54.165,85.075,54.296,85.893,54.52z"></path><path d="M63.891,85.533c-4.171,2.14-8.89,3.354-13.891,3.354c-5,0-9.718-1.215-13.889-3.353v6.126  c4.278,1.791,8.969,2.782,13.889,2.782c4.921,0,9.613-0.993,13.892-2.783v-1.458L63.891,85.533z"></path><path d="M67.047,77.995c0.016-0.052,0.039-0.101,0.057-0.152C67.086,77.895,67.062,77.943,67.047,77.995z"></path><path d="M66.667,80.439c0-0.371,0.033-0.734,0.082-1.092C66.7,79.705,66.667,80.068,66.667,80.439z"></path><path d="M67.684,76.521c0.004-0.007,0.01-0.015,0.014-0.021C67.693,76.506,67.688,76.514,67.684,76.521z"></path><path d="M79.203,69.44c1.157,0.862,2.576,1.392,4.128,1.392c0.195,0,0.379-0.042,0.57-0.057c1.328-0.111,2.546-0.581,3.557-1.333  c1.701-1.268,2.819-3.274,2.819-5.554c0-2.857-1.73-5.305-4.193-6.37c-0.845-0.368-1.774-0.575-2.753-0.575  c-0.997,0-1.94,0.22-2.799,0.598c-2.436,1.079-4.144,3.509-4.144,6.348c0,2.016,0.876,3.817,2.252,5.087  C78.819,69.141,79.008,69.296,79.203,69.44z"></path><g><path d="M50,21.25c1.723,0,3.125-1.402,3.125-3.125v-2.849l-6.25,0.001v2.847C46.875,19.848,48.277,21.25,50,21.25z"></path></g><g><path d="M58.405,15.276c-0.522,0-1.58,0-2.905,0h-0.292v2.849c0,2.515-1.793,4.618-4.166,5.103v6.297   c0.619,0.361,1.041,1.024,1.041,1.794c0,1.151-0.933,2.083-2.083,2.083s-2.083-0.932-2.083-2.083c0-0.771,0.422-1.434,1.042-1.794   v-6.297c-2.374-0.484-4.167-2.588-4.167-5.103v-2.846h-2.864c-4.544-0.003-8.594,3.678-8.594,8.218   c0,2.314,0.005,15.259,0.005,16.809c0,1.554,1.218,2.818,2.772,2.818c1.55,0,2.81-1.264,2.81-2.818   c0-1.804-0.033-15.239-0.033-15.239h2.778v18.056h16.667V25.068h2.778c0,0-0.024,13.435-0.024,15.239   c0,1.554,1.255,2.818,2.802,2.818c1.553,0,2.778-1.264,2.778-2.818c0-1.55,0-14.498,0-16.809   C66.667,18.958,62.945,15.276,58.405,15.276z"></path></g><g><g><path d="M91.738,72.15c-0.521,0-1.58,0-2.905,0h-0.291l-5.209,5.626l-5.208-5.623h-2.864c-4.544-0.003-8.594,3.679-8.594,8.218    c0,2.314,0.005,15.259,0.005,16.81c0,1.554,1.218,2.818,2.772,2.818c1.551,0,2.811-1.265,2.811-2.818    c0-1.805-0.032-15.238-0.032-15.238L75,81.943v18.056h16.667V81.943l2.777-0.001c0,0-0.024,13.434-0.024,15.238    c0,1.554,1.255,2.818,2.803,2.818c1.553,0,2.777-1.265,2.777-2.818c0-1.551,0-14.498,0-16.81    C100,75.832,96.278,72.15,91.738,72.15z M81.944,82.638h-4.167v-1.389h4.167V82.638z"></path></g></g><path d="M11.111,55.555c-1.129,0.881-1.389,5.556-1.389,5.556h13.889c0,0-0.349-4.572-1.389-5.556  C20.204,53.646,13.3,53.846,11.111,55.555z"></path><path d="M30.557,27.923c-8.199,5.263-14.13,13.745-16.016,23.649c1.04-0.129,1.92-0.153,2.375-0.153c0.854,0,2.04,0.066,3.258,0.31  c1.497-6.744,5.241-12.646,10.384-16.91v-1.56L30.557,27.923z"></path><g><g><path d="M13.699,74.999h5.996c0.075-1.071,0.176-2.06,0.266-2.822l-6.562,0.002C13.501,72.942,13.615,73.928,13.699,74.999z"></path></g><g><path d="M25.072,72.15c-0.522,0-3.708,0.007-3.708,0.007c-0.336,2.866-0.715,7.864,0.091,9.476    c0.171,0.343,0.033,0.76-0.311,0.932c-0.101,0.05-0.206,0.073-0.311,0.073c-0.254,0-0.5-0.141-0.622-0.384    c-0.355-0.711-0.527-1.827-0.592-3.089h-5.847c-0.078,1.224-0.27,2.326-0.651,3.089c-0.122,0.243-0.368,0.384-0.621,0.384    c-0.104,0-0.21-0.023-0.311-0.073c-0.343-0.172-0.481-0.589-0.311-0.932c0.903-1.807,0.49-6.686,0.115-9.473l-3.4-0.007    C4.05,72.15,0,75.832,0,80.371c0,2.314,0.005,15.259,0.005,16.81c0,1.554,1.218,2.818,2.772,2.818c1.55,0,2.81-1.265,2.81-2.818    c0-1.805-0.032-15.238-0.032-15.238h2.778v18.055H25V81.942h2.778c0,0-0.024,13.434-0.024,15.238c0,1.554,1.254,2.818,2.802,2.818    c1.553,0,2.778-1.265,2.778-2.818c0-1.551,0-14.498,0-16.81C33.333,75.832,29.611,72.15,25.072,72.15z"></path></g></g><path d="M9.879,62.499c-0.092,0.45-0.157,0.911-0.157,1.39c0,2.277,1.116,4.285,2.814,5.552c1.013,0.756,2.232,1.225,3.563,1.335  c0.188,0.015,0.371,0.057,0.564,0.057c1.552,0,2.97-0.529,4.127-1.39c0.198-0.148,0.388-0.303,0.568-0.469  c1.375-1.27,2.252-3.07,2.252-5.085c0-0.479-0.065-0.939-0.158-1.39H9.879z"></path></svg>